<svg width="44" height="45" viewBox="0 0 44 45" fill="none" xmlns="http://www.w3.org/2000/svg">
<g clip-path="url(#clip0_1216_3518)">
<path d="M37.523 6.04067L36.5634 6.90684C36.4002 7.05444 36.3022 7.2608 36.2911 7.48058C36.2799 7.70036 36.3565 7.91558 36.5039 8.07894L37.6143 9.30799C37.6873 9.3889 37.7755 9.45462 37.874 9.50141C37.9724 9.54819 38.0791 9.57511 38.188 9.58064C38.2968 9.58616 38.4057 9.57018 38.5084 9.5336C38.611 9.49702 38.7055 9.44056 38.7864 9.36746L39.7452 8.50044C40.0573 8.76046 40.5138 8.77157 40.8244 8.49094L41.7807 7.62701C41.8616 7.55398 41.9274 7.46572 41.9741 7.36728C42.0209 7.26883 42.0478 7.16214 42.0534 7.05328C42.0589 6.94443 42.0429 6.83555 42.0063 6.73288C41.9698 6.63021 41.9133 6.53575 41.8402 6.45491L39.7701 4.1635C39.6971 4.08258 39.6088 4.01686 39.5104 3.97007C39.4119 3.92329 39.3052 3.89637 39.1964 3.89084C39.0875 3.88532 38.9786 3.90131 38.876 3.93788C38.7733 3.97446 38.6788 4.03092 38.598 4.10402L37.6417 4.96796C37.4954 5.1021 37.4028 5.28476 37.3809 5.48203C37.3591 5.6793 37.4096 5.87779 37.523 6.04067ZM19.3481 32.3421L11.7156 23.8936L4.93061 30.0233L12.5614 38.4725L19.3481 32.3421ZM10.7137 33.0967C10.5595 33.0476 10.4211 32.9585 10.3126 32.8384C10.2041 32.7183 10.1294 32.5716 10.0962 32.4132C9.90922 31.4752 9.658 29.4769 10.7438 28.4508C11.3168 27.9217 12.156 27.847 12.7906 28.2896C13.2845 28.6384 13.5096 29.1727 13.4896 29.6946C13.4818 29.8468 13.6035 29.9823 13.7618 29.9959C14.289 30.0227 14.8033 30.3195 15.0936 30.8507C15.4637 31.5337 15.2866 32.3649 14.6915 32.8697C13.562 33.8228 11.6159 33.3771 10.7137 33.0967ZM28.7342 13.6695L26.0396 16.1039C24.8153 17.2124 23.4552 18.1609 21.9919 18.9267L22.745 21.434C22.7648 21.5017 22.8493 21.5951 22.9146 21.6217L25.3312 22.6239C26.2411 21.2453 27.3225 19.9879 28.5492 18.8819L31.2439 16.4475C31.3239 16.3752 31.372 16.274 31.3774 16.1663C31.3829 16.0586 31.3453 15.9531 31.273 15.8731L29.3078 13.6986C29.2355 13.6188 29.1346 13.5709 29.027 13.5655C28.9195 13.56 28.8142 13.5974 28.7342 13.6695ZM24.4798 24.0489C24.5436 23.9317 24.6199 23.8207 24.6861 23.7036L22.437 22.771C22.2285 22.6801 22.0418 22.5458 21.8894 22.3769C21.737 22.2081 21.6224 22.0087 21.5533 21.792L20.8524 19.4592C20.7292 19.5132 20.611 19.5779 20.4863 19.6294C17.3424 20.9301 14.4309 21.5591 12.8596 22.8609L12.6382 23.0609L20.2722 31.511L20.4936 31.311C21.947 29.8787 22.8675 27.0451 24.4798 24.0489ZM2.99689 31.7718C2.49218 32.2279 2.18929 32.8658 2.15481 33.5452C2.12034 34.2246 2.35711 34.8898 2.81306 35.3947L7.00722 40.0381C7.23307 40.2881 7.50595 40.4912 7.81029 40.6357C8.11463 40.7803 8.44447 40.8635 8.78096 40.8806C9.11745 40.8976 9.45402 40.8483 9.77143 40.7353C10.0888 40.6222 10.3809 40.4478 10.6309 40.2219L11.641 39.3093L4.00715 30.8576L2.99689 31.7718ZM29.9481 10.4668C29.8719 10.6133 29.857 10.7842 29.9067 10.9417C29.9564 11.0992 30.0666 11.2305 30.2131 11.3068C30.3597 11.383 30.5305 11.3979 30.688 11.3482C30.8455 11.2985 30.9769 11.1883 31.0531 11.0418L32.7205 7.83074C32.7582 7.75818 32.7813 7.6789 32.7884 7.59743C32.7955 7.51595 32.7865 7.43387 32.7619 7.35587C32.7373 7.27787 32.6976 7.20548 32.645 7.14284C32.5924 7.0802 32.528 7.02853 32.4555 6.99077C32.3829 6.95302 32.3036 6.92993 32.2222 6.92282C32.1407 6.91571 32.0586 6.92471 31.9806 6.94932C31.9026 6.97393 31.8302 7.01366 31.7676 7.06624C31.7049 7.11883 31.6533 7.18323 31.6155 7.25579L29.9481 10.4668ZM32.8301 13.3319L35.3454 11.0604C35.468 10.9496 35.5415 10.7947 35.5499 10.6298C35.5583 10.4648 35.5008 10.3033 35.39 10.1807C35.2793 10.0581 35.1244 9.98455 34.9594 9.97617C34.7945 9.9678 34.6329 10.0253 34.5104 10.136L31.995 12.4084C31.8724 12.5192 31.7989 12.6741 31.7905 12.839C31.7821 13.004 31.8397 13.1655 31.9504 13.2881C32.0611 13.4107 32.216 13.4842 32.381 13.4926C32.5459 13.501 32.7075 13.4427 32.8301 13.3319ZM33.8623 15.4036C33.9476 15.4977 34.0596 15.5636 34.1833 15.5924C34.3069 15.6212 34.4365 15.6116 34.5546 15.5649L37.9171 14.231C38.0706 14.17 38.1935 14.0505 38.2589 13.8988C38.3243 13.7472 38.3268 13.5757 38.2657 13.4222C38.2047 13.2687 38.0852 13.1458 37.9335 13.0804C37.7819 13.015 37.6104 13.0125 37.4569 13.0735L34.0944 14.4082C34.0012 14.4454 33.9184 14.5046 33.853 14.5808C33.7876 14.6569 33.7416 14.7477 33.7188 14.8454C33.696 14.9431 33.6972 15.0449 33.7222 15.1421C33.7472 15.2393 33.7952 15.329 33.8623 15.4036Z" fill="#F6F4F5"/>
</g>
<defs>
<clipPath id="clip0_1216_3518">
<rect width="41.7139" height="41.7139" fill="white" transform="translate(2.22971 0.397461) rotate(2.90478)"/>
</clipPath>
</defs>
</svg>
